<?xml version="1.0" encoding="utf-8"?>
<svg version="1.1" xmlns:xlink="http://www.w3.org/1999/xlink" width="20px" height="20px" xmlns="http://www.w3.org/2000/svg">
  <g transform="matrix(1 0 0 1 -542 -235 )">
    <path d="M 16.5234375 12.7514600908501  C 16.8967013888889 11.873242483236  17.0833333333333 10.9539260220636  17.0833333333333 9.9935107073329  C 17.0833333333333 8.60047588146225  16.7057291666667 7.32424832359939  15.9505208333333 6.16482803374432  L 6.1328125 15.9377027903958  C 7.32204861111111 16.707765520225  8.61111111111111 17.0927968851395  10 17.0927968851395  C 10.9635416666667 17.0927968851395  11.8815104166667 16.9046073977936  12.75390625 16.5282284231019  C 13.6263020833333 16.1518494484101  14.3793402777778 15.6478477179321  15.0130208333333 15.0162232316677  C 15.6467013888889 14.3845987454034  16.1501736111111 13.6296776984642  16.5234375 12.7514600908501  Z M 2.91666666666667 9.9935107073329  C 2.91666666666667 11.3951979234263  3.30295138888889 12.6887302617348  4.07552083333333 13.8741077222583  L 13.90625 4.08825438027255  C 12.734375 3.30088686999784  11.4322916666667 2.90720311486048  10 2.90720311486048  C 8.71527777777778 2.90720311486048  7.53038194444445 3.22301535799264  6.4453125 3.85463984425698  C 5.36024305555556 4.4862643305213  4.50086805555556 5.34717715768981  3.8671875 6.43737832576249  C 3.23350694444444 7.52757949383517  2.91666666666667 8.71295695435864  2.91666666666667 9.9935107073329  Z M 19.2057291666667 6.10642439974043  C 19.7352430555556 7.33939000648929  20 8.63508544235345  20 9.9935107073329  C 20 11.3519359723124  19.7352430555556 12.6497945057322  19.2057291666667 13.8870863075925  C 18.6762152777778 15.1243781094527  17.9665798611111 16.188622106857  17.0768229166667 17.0798182998053  C 16.1870659722222 17.9710144927536  15.1236979166667 18.6805104910231  13.88671875 19.2083062946139  C 12.6497395833333 19.7361020982046  11.3541666666667 20  10 20  C 8.64583333333333 20  7.35026041666667 19.7361020982046  6.11328125 19.2083062946139  C 4.87630208333333 18.6805104910231  3.81293402777778 17.9710144927536  2.92317708333333 17.0798182998053  C 2.03342013888889 16.188622106857  1.32378472222222 15.1243781094527  0.794270833333333 13.8870863075925  C 0.264756944444445 12.6497945057322  0 11.3519359723124  0 9.9935107073329  C 0 8.63508544235345  0.264756944444445 7.33939000648929  0.794270833333333 6.10642439974043  C 1.32378472222222 4.87345879299156  2.03342013888889 3.81137789314298  2.92317708333333 2.92018170019468  C 3.81293402777778 2.02898550724637  4.87630208333333 1.31948950897685  6.11328125 0.791693705386114  C 7.35026041666667 0.263897901795369  8.64583333333333 0  10 0  C 11.3541666666667 0  12.6497395833333 0.263897901795369  13.88671875 0.791693705386114  C 15.1236979166667 1.31948950897685  16.1870659722222 2.02898550724637  17.0768229166667 2.92018170019468  C 17.9665798611111 3.81137789314298  18.6762152777778 4.87345879299156  19.2057291666667 6.10642439974043  Z " fill-rule="nonzero" fill="#f59a23" stroke="none" transform="matrix(1 0 0 1 542 235 )" />
  </g>
</svg>