<?xml version="1.0" encoding="utf-8"?>
<svg version="1.1" xmlns:xlink="http://www.w3.org/1999/xlink" width="12px" height="12px" viewBox="221 449.5  12 12" xmlns="http://www.w3.org/2000/svg">
  <path d="M 227 449.5  C 230.36 449.5  233 452.14  233 455.5  C 233 458.86  230.36 461.5  227 461.5  C 223.64 461.5  221 458.86  221 455.5  C 221 452.14  223.64 449.5  227 449.5  Z " fill-rule="nonzero" fill="#ffffff" stroke="none" />
  <path d="M 227 450  C 230.08 450  232.5 452.42  232.5 455.5  C 232.5 458.58  230.08 461  227 461  C 223.92 461  221.5 458.58  221.5 455.5  C 221.5 452.42  223.92 450  227 450  Z " stroke-width="1" stroke="#797979" fill="none" />
  <path d="M 227 458.5  C 225.32 458.5  224 457.18  224 455.5  C 224 453.82  225.32 452.5  227 452.5  C 228.68 452.5  230 453.82  230 455.5  C 230 457.18  228.68 458.5  227 458.5  " fill-rule="nonzero" fill="#797979" stroke="none" />
</svg>