<?xml version="1.0" encoding="utf-8"?>
<svg version="1.1" xmlns:xlink="http://www.w3.org/1999/xlink" width="50px" height="28px" xmlns="http://www.w3.org/2000/svg">
  <g transform="matrix(1 0 0 1 -558 -308 )">
    <path d="M 47.353579175705 11.5081967213115  C 48.8141720896602 13.0892531876138  49.6673897324657 14.936247723133  49.9132321041215 17.0491803278689  C 50.0867678958785 18.5500910746812  49.9276934201012 19.9963570127505  49.4360086767896 21.3879781420765  C 48.944323933478 22.7795992714026  48.2284887924801 23.9708561020036  47.2885032537961 24.9617486338798  C 46.3485177151121 25.9526411657559  45.2024584237166 26.7249544626594  43.8503253796095 27.2786885245902  C 42.4981923355025 27.8324225865209  41.0773680404917 28.0582877959927  39.587852494577 27.9562841530055  C 37.2595806218366 27.7959927140255  35.2386117136659 26.8852459016393  33.5249457700651 25.224043715847  C 31.8112798264642 23.5628415300546  30.8387563268257 21.5664845173042  30.6073752711497 19.2349726775956  C 30.4338394793926 17.6174863387978  30.6326825741142 16.0837887067395  31.2039045553145 14.6338797814208  C 31.7751265365148 13.183970856102  32.6319595083153 11.9417122040073  33.7744034707158 10.9071038251366  L 32.234273318872 8.56830601092896  C 30.8459869848156 9.73406193078324  29.7541576283442 11.1475409836066  28.9587852494577 12.8087431693989  C 28.1634128705712 14.4699453551913  27.765726681128 16.247723132969  27.765726681128 18.1420765027322  C 27.765726681128 18.5355191256831  27.6319595083153 18.8743169398907  27.3644251626898 19.1584699453552  C 27.0968908170644 19.4426229508197  26.7678958785249 19.5846994535519  26.3774403470716 19.5846994535519  L 20.824295010846 19.5846994535519  L 19.3275488069414 19.5846994535519  C 18.9949385394071 21.9744990892532  17.9175704989154 23.9708561020036  16.0954446854664 25.5737704918033  C 14.2733188720174 27.1766848816029  12.1475054229935 27.9781420765027  9.71800433839479 27.9781420765027  C 7.04266088214027 27.9781420765027  4.75415762834418 27.0200364298725  2.85249457700651 25.103825136612  C 0.950831525668836 23.1876138433515  0 20.8816029143898  0 18.1857923497268  C 0 15.4899817850638  0.950831525668836 13.183970856102  2.85249457700651 11.2677595628415  C 4.75415762834418 9.35154826958106  7.04266088214027 8.39344262295082  9.71800433839479 8.39344262295082  C 10.8170643528561 8.39344262295082  11.9161243673174 8.59016393442623  13.0151843817787 8.98360655737705  L 13.5357917570499 8  C 11.7570498915401 6.39708561020036  9.5589298626175 5.59562841530055  6.941431670282 5.59562841530055  L 5.5531453362256 5.59562841530055  C 5.17715112075199 5.59562841530055  4.85177151120752 5.45719489981785  4.57700650759219 5.18032786885246  C 4.30224150397686 4.90346083788706  4.1648590021692 4.57559198542805  4.1648590021692 4.19672131147541  C 4.1648590021692 3.81785063752277  4.30224150397686 3.48998178506375  4.57700650759219 3.21311475409836  C 4.85177151120752 2.93624772313297  5.17715112075199 2.79781420765027  5.5531453362256 2.79781420765027  L 8.32971800433839 2.79781420765027  C 9.45770065075922 2.79781420765027  10.5061460592914 2.89617486338798  11.4750542299349 3.09289617486339  C 12.4439624005785 3.2896174863388  13.2863340563991 3.57012750455373  14.002169197397 3.9344262295082  C 14.7180043383948 4.29872495446266  15.234996384671 4.58652094717668  15.5531453362256 4.79781420765027  C 15.8712942877802 5.00910746812386  16.2400578452639 5.27504553734062  16.6594360086768 6  L 27.765726681128 6  L 30.2603036876356 5.59562841530055  L 28.4164859002169 2.79781420765027  L 23.6008676789588 2.79781420765027  C 23.1670281995662 2.79781420765027  22.8127259580622 2.63387978142076  22.5379609544469 2.30601092896175  C 22.2631959508315 1.97814207650273  22.1619667389732 1.59562841530055  22.234273318872 1.15846994535519  C 22.292118582791 0.823315118397082  22.4584237165582 0.546448087431695  22.7331887201735 0.327868852459017  C 23.0079537237889 0.109289617486339  23.3188720173536 0  23.6659436008677 0  L 29.1540130151844 0  C 29.6312364425163 0  30.0144613159798 0.204007285974497  30.3036876355748 0.612021857923498  L 31.822125813449 2.90710382513661  L 34.295010845987 0.415300546448088  C 34.5697758496023 0.138433515482694  34.9023861171367 0  35.29284164859 0  L 37.4837310195228 0  C 37.8597252349964 0  38.1851048445409 0.138433515482694  38.4598698481562 0.415300546448088  C 38.7346348517715 0.692167577413476  38.8720173535792 1.02003642987249  38.8720173535792 1.39890710382514  L 38.8720173535792 4.19672131147541  C 38.8720173535792 4.57559198542805  38.7346348517715 4.90346083788706  38.4598698481562 5.18032786885246  C 38.1851048445409 5.45719489981785  37.8597252349964 5.59562841530055  37.4837310195228 5.59562841530055  L 33.6008676789588 5.59562841530055  L 36.0954446854664 9.3551912568306  C 37.9898770788142 8.43715846994535  39.9783080260304 8.17486338797814  42.060737527115 8.56830601092896  C 44.1287057122198 8.9471766848816  45.8929862617498 9.92714025500911  47.353579175705 11.5081967213115  Z M 4.81561822125814 23.1256830601093  C 6.17498192335503 24.4954462659381  7.80911062906725 25.1803278688525  9.71800433839479 25.1803278688525  C 11.3810556760665 25.1803278688525  12.8488792480116 24.6520947176685  14.1214750542299 23.5956284153005  C 15.3940708604483 22.5391621129326  16.1966738973247 21.2021857923497  16.529284164859 19.5846994535519  L 9.71800433839479 19.5846994535519  C 9.2118582791034 19.5846994535519  8.81417208966016 19.3588342440801  8.52494577006508 18.9071038251366  C 8.2646420824295 18.4408014571949  8.25741142443962 17.9817850637523  8.50325379609544 17.5300546448087  L 11.6919739696312 11.4754098360656  C 11.0122921185828 11.2859744990893  10.354302241504 11.1912568306011  9.71800433839479 11.1912568306011  C 7.80911062906725 11.1912568306011  6.17498192335503 11.8761384335155  4.81561822125814 13.2459016393443  C 3.45625451916124 14.615664845173  2.7765726681128 16.2622950819672  2.7765726681128 18.1857923497268  C 2.7765726681128 20.1092896174863  3.45625451916124 21.7559198542805  4.81561822125814 23.1256830601093  Z M 35.3579175704989 23.1256830601093  C 36.7172812725958 24.4954462659381  38.351409978308 25.1803278688525  40.2603036876356 25.1803278688525  C 42.1691973969631 25.1803278688525  43.8033261026753 24.4954462659381  45.1626898047722 23.1256830601093  C 46.5220535068691 21.7559198542805  47.2017353579176 20.1092896174863  47.2017353579176 18.1857923497268  C 47.2017353579176 16.2622950819672  46.5220535068691 14.615664845173  45.1626898047722 13.2459016393443  C 43.8033261026753 11.8761384335155  42.1691973969631 11.1912568306011  40.2603036876356 11.1912568306011  C 39.3926247288503 11.1912568306011  38.5177151120752 11.3661202185792  37.6355748373102 11.7158469945355  L 41.409978308026 17.3989071038251  C 41.6268980477223 17.7340619307832  41.6992046276211 18.0910746812386  41.6268980477223 18.4699453551913  C 41.5545914678236 18.8488160291439  41.3593637020969 19.1402550091075  41.0412147505423 19.344262295082  C 40.824295010846 19.5045537340619  40.5639913232104 19.5846994535519  40.2603036876356 19.5846994535519  C 39.7541576283442 19.5846994535519  39.3709327548807 19.3734061930783  39.1106290672451 18.9508196721311  L 35.3362255965293 13.2677595628415  C 33.9913232104121 14.6520947176685  33.3188720173536 16.2914389799636  33.3188720173536 18.1857923497268  C 33.3188720173536 20.1092896174863  33.998553868402 21.7559198542805  35.3579175704989 23.1256830601093  Z " fill-rule="nonzero" fill="#ffc600" stroke="none" transform="matrix(1 0 0 1 558 308 )" />
  </g>
</svg>