<?xml version="1.0" encoding="utf-8"?>
<svg version="1.1" xmlns:xlink="http://www.w3.org/1999/xlink" width="42px" height="47px" xmlns="http://www.w3.org/2000/svg">
  <g transform="matrix(1 0 0 1 -783 -298 )">
    <path d="M 0 10.0714285714286  L 21 0  L 42 10.0714285714286  L 42 13.4285714285714  L 39.2 13.4285714285714  C 39.2 13.8831845238095  39.0505208333333 14.276599702381  38.7515625 14.6088169642857  C 38.4526041666667 14.9410342261905  38.0989583333333 15.1071428571429  37.690625 16  L 4.309375 16  C 3.90104166666667 15.1071428571429  3.54739583333333 14.9410342261905  3.2484375 14.6088169642857  C 2.94947916666667 14.276599702381  2.8 13.8831845238095  2.8 13.4285714285714  L 0 13.4285714285714  L 0 10.0714285714286  Z M 6 36.9285714285714  L 6 16.7857142857143  L 12 16.7857142857143  L 12 36.9285714285714  L 14 36.9285714285714  L 14 16.7857142857143  L 20 16.7857142857143  L 20 36.9285714285714  L 22 36.9285714285714  L 22 16.7857142857143  L 28 16.7857142857143  L 28 36.9285714285714  L 30 36.9285714285714  L 30 16.7857142857143  L 36 16.7857142857143  L 36 36.9285714285714  L 37.690625 36.9285714285714  C 38.0989583333333 36.9285714285714  38.4526041666667 37.0946800595238  38.7515625 37.4268973214286  C 39.0505208333333 37.7591145833333  39.2 38.1525297619048  39.2 38.6071428571429  L 39.2 40  L 2.8 40  L 2.8 38.6071428571429  C 2.8 38.1525297619048  2.94947916666667 37.7591145833333  3.2484375 37.4268973214286  C 3.54739583333333 37.0946800595238  3.90104166666667 36.9285714285714  4.309375 36.9285714285714  L 6 36.9285714285714  Z M 1.509375 42  L 40.490625 42  C 40.8989583333333 41.9642857142857  41.2526041666667 42.1303943452381  41.5515625 42.4626116071429  C 41.8505208333333 42.7948288690476  42 43.1882440476191  42 43.6428571428571  L 42 47  L 0 47  L 0 43.6428571428571  C 0 43.1882440476191  0.149479166666667 42.7948288690476  0.4484375 42.4626116071429  C 0.747395833333333 42.1303943452381  1.10104166666667 41.9642857142857  1.509375 42  Z " fill-rule="nonzero" fill="#ffc600" stroke="none" transform="matrix(1 0 0 1 783 298 )" />
  </g>
</svg>