<?xml version="1.0" encoding="utf-8"?>
<svg version="1.1" xmlns:xlink="http://www.w3.org/1999/xlink" width="41px" height="48px" xmlns="http://www.w3.org/2000/svg">
  <g transform="matrix(1 0 0 1 -1005 -298 )">
    <path d="M 40.4707880434783 38.2232142857143  C 40.8235960144928 38.5625  41 38.9642857142857  41 39.4285714285714  C 41 39.8928571428571  40.8235960144928 40.2946428571429  40.4707880434783 40.6339285714286  C 40.1179800724638 40.9732142857143  39.7001811594203 41.1428571428571  39.2173913043478 41  L 26.3491847826087 41  C 26.3677536231884 41.4464285714286  26.4234601449275 42.2276785714286  26.5163043478261 43.4866071428571  C 26.6091485507246 44.7455357142857  26.6555706521739 45.7142857142857  26.6555706521739 46.3928571428571  C 26.6555706521739 46.8392857142857  26.4884510869565 47.21875  26.1542119565217 47.53125  C 25.819972826087 47.84375  25.4207427536232 48  24.9565217391304 48  L 16.0434782608696 48  C 15.5792572463768 48  15.180027173913 47.84375  14.8457880434783 47.53125  C 14.5115489130435 47.21875  14.3444293478261 46.8392857142857  14.3444293478261 46.3928571428571  C 14.3444293478261 45.7142857142857  14.3908514492754 44.7455357142857  14.4836956521739 43.4866071428571  C 14.5765398550725 42.2276785714286  14.6322463768116 41.4464285714286  14.6508152173913 41  L 1.78260869565217 41  C 1.29981884057971 41.1428571428571  0.882019927536232 40.9732142857143  0.529211956521739 40.6339285714286  C 0.176403985507246 40.2946428571429  0 39.8928571428571  0 39.4285714285714  C 0 38.9642857142857  0.176403985507246 38.5625  0.529211956521739 38.2232142857143  L 11.726222826087 27.4285714285714  L 5.34782608695652 27.4285714285714  C 4.86503623188406 27.4285714285714  4.44723731884058 27.2589285714286  4.09442934782609 26.9196428571429  C 3.74162137681159 26.5803571428571  3.56521739130435 26.1785714285714  3.56521739130435 25.7142857142857  C 3.56521739130435 25.25  3.74162137681159 24.8482142857143  4.09442934782609 24.5089285714286  L 15.2914402173913 13.7142857142857  L 9.80434782608696 13.7142857142857  C 9.32155797101449 13.7142857142857  8.90375905797102 13.5446428571429  8.55095108695652 13.2053571428571  C 8.19814311594203 12.8660714285714  8.02173913043478 12.4642857142857  8.02173913043478 12  C 8.02173913043478 11.5357142857143  8.19814311594203 11.1339285714286  8.55095108695652 10.7946428571429  L 19.2466032608696 0.508928571428573  C 19.5994112318841 0.169642857142861  20.0172101449275 0  20.5 0  C 20.9827898550725 0  21.4005887681159 0.169642857142861  21.7533967391304 0.508928571428573  L 32.4490489130435 10.7946428571429  C 32.801856884058 11.1339285714286  32.9782608695652 11.5357142857143  32.9782608695652 12  C 32.9782608695652 12.4642857142857  32.801856884058 12.8660714285714  32.4490489130435 13.2053571428571  C 32.096240942029 13.5446428571429  31.6784420289855 13.7142857142857  31.195652173913 13.7142857142857  L 25.7085597826087 13.7142857142857  L 36.9055706521739 24.5089285714286  C 37.2583786231884 24.8482142857143  37.4347826086956 25.25  37.4347826086956 25.7142857142857  C 37.4347826086956 26.1785714285714  37.2583786231884 26.5803571428571  36.9055706521739 26.9196428571429  C 36.5527626811594 27.2589285714286  36.1349637681159 27.4285714285714  35.6521739130435 27.4285714285714  L 29.273777173913 27.4285714285714  L 40.4707880434783 38.2232142857143  Z " fill-rule="nonzero" fill="#ffc600" stroke="none" transform="matrix(1 0 0 1 1005 298 )" />
  </g>
</svg>