<?xml version="1.0" encoding="utf-8"?>
<svg version="1.1" xmlns:xlink="http://www.w3.org/1999/xlink" width="20px" height="31px" xmlns="http://www.w3.org/2000/svg">
  <g transform="matrix(1 0 0 1 -1161 -378 )">
    <path d="M 1.8125 0  L 18.1875 0  C 18.4270833333333 0  18.65625 0.0614672835426311  18.875 0.184401850627893  C 19.21875 0.361974003084375  19.4921875 0.641991628111917  19.6953125 1.02445472571051  C 19.8984375 1.4069178233091  20 1.83035910993611  20 2.29477858559154  L 20 28.7052214144085  C 20 29.1696408900639  19.8984375 29.5930821766909  19.6953125 29.9755452742895  C 19.4921875 30.3580083718881  19.21875 30.6380259969156  18.875 30.8155981493721  C 18.6770833333333 30.9248733201146  18.4479166666667 30.9795109054858  18.1875 30.9795109054858  C 17.6875 30.9795109054858  17.2552083333333 30.7609605640009  16.890625 30.3238598810311  L 10 21.6364838070059  L 3.109375 30.3238598810311  C 2.734375 30.7746199603437  2.30208333333333 31  1.8125 31  C 1.57291666666667 31  1.34375 30.9385327164574  1.125 30.8155981493721  C 0.78125 30.6380259969156  0.5078125 30.3580083718881  0.3046875 29.9755452742895  C 0.1015625 29.5930821766909  0 29.1696408900639  0 28.7052214144085  L 0 2.29477858559154  C 0 1.83035910993611  0.1015625 1.4069178233091  0.3046875 1.02445472571051  C 0.5078125 0.641991628111917  0.78125 0.361974003084375  1.125 0.184401850627893  C 1.34375 0.0614672835426311  1.57291666666667 0  1.8125 0  Z " fill-rule="nonzero" fill="#f2c146" stroke="none" transform="matrix(1 0 0 1 1161 378 )" />
  </g>
</svg>