<?xml version="1.0" encoding="utf-8"?>
<svg version="1.1" xmlns:xlink="http://www.w3.org/1999/xlink" width="21px" height="31px" xmlns="http://www.w3.org/2000/svg">
  <g transform="matrix(1 0 0 1 -1323 -378 )">
    <path d="M 6.45351312987935 6.95344619105199  L 8.89779985805536 12.313784764208  C 8.79843860894251 12.5386940749698  7.52164655784244 15.3875453446191  5.06742370475515 20.860338573156  C 4.79914833215046 21.4351068117694  4.47622427253371 21.7224909310762  4.0986515259049 21.7224909310762  L 0.536550745209368 21.7224909310762  C 0.327892122072392 21.7224909310762  0.173882185947481 21.6162837565498  0.0745209368346345 21.403869407497  C -0.0248403122782115 21.1914550584442  -0.0248403122782115 20.9665457476824  0.0745209368346345 20.7291414752116  L 3.84528034066714 12.3325272067715  C 3.85521646557843 12.3325272067715  3.85521646557843 12.326279725917  3.84528034066714 12.313784764208  L 1.44570617459191 7.08464328899637  C 1.32647267565649 6.80975413139863  1.32150461320085 6.57859733978235  1.43080198722498 6.39117291414752  C 1.52022711142654 6.2037484885127  1.6792051100071 6.11003627569528  1.90773598296664 6.11003627569528  L 5.46983676366217 6.11003627569528  C 5.86728176011356 6.11003627569528  6.19517388218595 6.39117291414752  6.45351312987935 6.95344619105199  Z M 20.4485450674237 0  C 20.667139815472 0  20.8211497515969 0.0937122128174118  20.9105748757984 0.281136638452235  C 21.0198722498226 0.481056025796047  21.0198722498226 0.712212817412335  20.9105748757984 0.974607013301088  L 13.041163946061 18.4800483675937  L 13.041163946061 18.4987908101572  L 18.0489709013485 30.0253929866989  C 18.1582682753726 30.2752922208787  18.1632363378282 30.506449012495  18.0638750887154 30.7188633615478  C 17.9645138396026 30.9062877871826  17.805535841022 31  17.5869410929737 31  L 14.0248403122782 31  C 13.6075230660043 31  13.2796309439319 30.7188633615478  13.041163946061 30.1565900846433  L 7.98864442867282 18.4987908101572  C 8.16749467707594 18.0989520354696  10.805535841022 12.2138250705361  15.902767920511 0.84340991535671  C 16.1511710432931 0.281136638452235  16.4691270404542 0  16.8566359119943 0  L 20.4485450674237 0  Z " fill-rule="nonzero" fill="#f2c146" stroke="none" transform="matrix(1 0 0 1 1323 378 )" />
  </g>
</svg>