<?xml version="1.0" encoding="utf-8"?>
<svg version="1.1" xmlns:xlink="http://www.w3.org/1999/xlink" width="50px" height="29px" xmlns="http://www.w3.org/2000/svg">
  <g transform="matrix(1 0 0 1 -1237 -453 )">
    <path d="M 34.4943576388889 21.6645802650957  C 35.2973090277778 20.8744477172312  35.6987847222222 19.9241531664212  35.6987847222222 18.8136966126657  C 35.6987847222222 17.973735886107  35.4528356481482 17.2156357388316  34.9609375 16.5393961708395  C 34.4690393518519 15.8631566028473  33.8396990740741 15.3755522827688  33.0729166666667 15.0765832106038  C 32.9716435185185 15.7172312223859  32.8052662037037 16.3721158566519  32.5737847222222 17.0412371134021  C 32.4725115740741 17.3829160530191  32.2735821759259 17.653411880216  31.9769965277778 17.8527245949926  C 31.6804108796296 18.0520373097693  31.3585069444444 18.1516936671576  31.0112847222222 18.1516936671576  C 30.8376736111111 18.1516936671576  30.6640625 18.1303387334315  30.4904513888889 18.0876288659794  C 30.0419560185185 17.9452626411389  29.7164351851852 17.6712076583211  29.5138888888889 17.2654639175258  C 29.3113425925926 16.8597201767305  29.2824074074074 16.4432989690722  29.4270833333333 16.0162002945508  C 29.759837962963 15.0054000981836  29.9262152777778 13.9874815905744  29.9262152777778 12.9624447717231  C 29.9262152777778 11.2113402061856  29.4849537037037 9.59192439862543  28.6024305555556 8.10419734904271  C 27.7199074074074 6.61647029945999  26.5190972222222 5.43838978890525  25 4.5699558173785  C 23.4809027777778 3.70152184585174  21.8315972222222 3.26730486008837  20.0520833333333 3.26730486008837  C 18.1134259259259 3.26730486008837  16.3266782407407 3.78694158075601  14.6918402777778 4.82621502209131  C 13.0570023148148 5.8654884634266  11.8489583333333 7.24644084437899  11.0677083333333 8.96907216494845  C 12.6302083333333 9.36769759450172  13.990162037037 10.1222385861561  15.1475694444444 11.2326951399116  C 15.4658564814815 11.5601374570447  15.625 11.9516445753559  15.625 12.4072164948454  C 15.625 12.8627884143348  15.4658564814815 13.247177221404  15.1475694444444 13.560382916053  C 14.8292824074074 13.873588610702  14.4386574074074 14.0301914580265  13.9756944444444 14.0301914580265  C 13.5127314814815 14.0301914580265  13.1148726851852 13.873588610702  12.7821180555556 13.560382916053  C 11.6970486111111 12.4926362297496  10.3949652777778 11.9587628865979  8.87586805555556 11.9587628865979  C 7.34230324074074 11.9587628865979  6.03298611111111 12.4890770741286  4.94791666666667 13.54970544919  C 3.86284722222222 14.6103338242513  3.3203125 15.8951890034364  3.3203125 17.4042709867452  C 3.3203125 18.913352970054  3.86284722222222 20.1982081492391  4.94791666666667 21.2588365243004  C 6.03298611111111 22.3194648993618  7.34230324074074 22.8497790868925  8.87586805555556 22.8497790868925  L 31.5755208333333 22.8497790868925  C 32.7184606481482 22.8497790868925  33.69140625 22.4547128129602  34.4943576388889 21.6645802650957  Z M 37.3589409722222 14.2330633284242  C 38.4657118055556 15.5641875306824  39.0190972222222 17.0910652920962  39.0190972222222 18.8136966126657  C 39.0190972222222 20.8352970054001  38.2921006944444 22.5579283259696  36.8381076388889 23.9815905743741  C 35.3841145833333 25.4052528227786  33.6299189814815 26.1170839469809  31.5755208333333 26  L 8.87586805555556 26  C 6.43084490740741 26.1170839469809  4.34027777777778 25.2664457535592  2.60416666666667 23.5651693667158  C 0.868055555555556 21.8638929798724  0 19.8102601865488  0 17.4042709867452  C 0 15.2260677466863  0.72337962962963 13.3254786450663  2.17013888888889 11.7025036818851  C 3.61689814814815 10.079528718704  5.41811342592593 9.1114383897889  7.57378472222222 8.79823269513991  C 8.47077546296296 6.1786941580756  10.0694444444444 4.05743740795287  12.3697916666667 2.43446244477172  C 14.6701388888889 0.811487481590575  17.2309027777778 0  20.0520833333333 0  C 23.4519675925926 0  26.4069733796296 1.12825233186058  28.9171006944444 3.38475699558174  C 31.4272280092593 5.64126165930289  32.8486689814815 8.41384388807069  33.1814236111111 11.7025036818851  C 34.8596643518519 12.0584192439863  36.2521701388889 12.9019391261659  37.3589409722222 14.2330633284242  Z M 42.3394097222222 12.0228276877761  C 43.7427662037037 14.0444280805106  44.4444444444444 16.3080510554737  44.4444444444444 18.8136966126657  C 44.4444444444444 21.3051055473736  43.7427662037037 23.5758468335788  42.3394097222222 25.6259204712813  C 42.0066550925926 26.0957290132548  41.5436921296296 26.3306332842415  40.9505208333333 26.3306332842415  C 40.6032986111111 26.3306332842415  40.2922453703704 26.2380952380952  40.0173611111111 26.0530191458027  C 39.6412037037037 25.8109965635739  39.4097222222222 25.4657584683358  39.3229166666667 25.0173048600884  C 39.2361111111111 24.5688512518409  39.3229166666667 24.1595483554246  39.5833333333333 23.7893961708395  C 40.6105324074074 22.3087874324988  41.1241319444444 20.6502209131075  41.1241319444444 18.8136966126657  C 41.1241319444444 16.9771723122239  40.6105324074074 15.3186057928326  39.5833333333333 13.8379970544919  C 39.3229166666667 13.4678448699067  39.2361111111111 13.0621011291114  39.3229166666667 12.620765832106  C 39.4097222222222 12.1794305351006  39.6412037037037 11.8306332842415  40.0173611111111 11.5743740795287  C 40.3935185185185 11.3181148748159  40.8094618055556 11.2362542955326  41.2651909722222 11.3287923416789  C 41.7209201388889 11.4213303878252  42.0789930555556 11.652675503191  42.3394097222222 12.0228276877761  Z M 47.0920138888889 9.37481590574374  C 49.0306712962963 12.1936671575847  50 15.3399607265587  50 18.8136966126657  C 50 22.2874324987727  49.0306712962963 25.4408443789887  47.0920138888889 28.2739322533137  C 46.7592592592593 28.7579774177712  46.2962962962963 29  45.703125 29  C 45.3703703703704 29  45.0665509259259 28.9074619538537  44.7916666666667 28.7223858615611  C 44.4155092592593 28.4661266568483  44.1804108796296 28.1173294059892  44.0863715277778 27.6759941089838  C 43.9923321759259 27.2346588119784  44.0755208333333 26.8289150711831  44.3359375 26.4587628865979  C 45.8984375 24.1239567992145  46.6796875 21.5756013745704  46.6796875 18.8136966126657  C 46.6796875 16.0375552282769  45.8984375 13.4963181148748  44.3359375 11.1899852724595  C 44.0755208333333 10.8198330878743  43.9923321759259 10.410530191458  44.0863715277778 9.9620765832106  C 44.1804108796296 9.51362297496318  44.4155092592593 9.16838487972509  44.7916666666667 8.92636229749632  C 45.1678240740741 8.67010309278351  45.580150462963 8.58468335787923  46.0286458333333 8.67010309278351  C 46.4771412037037 8.75552282768778  46.8315972222222 8.99042709867452  47.0920138888889 9.37481590574374  Z " fill-rule="nonzero" fill="#f2c346" stroke="none" transform="matrix(1 0 0 1 1237 453 )" />
  </g>
</svg>