<?xml version="1.0" encoding="utf-8"?>
<svg version="1.1" xmlns:xlink="http://www.w3.org/1999/xlink" width="43px" height="31px" xmlns="http://www.w3.org/2000/svg">
  <g transform="matrix(1 0 0 1 -1149 -453 )">
    <path d="M 12.8029513888889 19.7483723958333  C 13.6241319444444 21.0198567708333  14.6941550925926 21.9246961805556  16 22.462890625  L 16 8.4765625  C 14.6941550925926 9.02821180555555  13.6241319444444 9.93977864583333  12.8029513888889 11.2112630208333  C 11.9817708333333 12.4827473958333  11.5711805555556 13.9055989583333  11.5711805555556 15.4798177083333  C 11.5711805555556 17.0540364583333  11.9817708333333 18.4768880208333  12.8029513888889 19.7483723958333  Z M 24.1875 19.7483723958333  C 25.0086805555556 18.4768880208333  25.4192708333333 17.0540364583333  25.4192708333333 15.4798177083333  C 25.4192708333333 13.9055989583333  25.0086805555556 12.4827473958333  24.1875 11.2112630208333  C 23.3663194444444 9.93977864583333  22.2962962962963 9.02821180555555  21 8.4765625  L 21 22.4830729166667  C 22.2962962962963 21.9314236111111  23.3663194444444 21.0198567708333  24.1875 19.7483723958333  Z M 27.966796875 9.54622395833333  C 28.9435040509259 11.3626302083333  29.4318576388889 13.3404947916667  29.4318576388889 15.4798177083333  C 29.4318576388889 17.619140625  28.9435040509259 19.5970052083333  27.966796875 21.4134114583333  C 26.9900896990741 23.2298177083333  25.6618923611111 24.6661241319444  23.9822048611111 25.7223307291667  C 22.3025173611111 26.7785373263889  20.4735243055556 27.306640625  18.4952256944444 27.306640625  C 17.0146122685185 27.306640625  15.5993200231482 26.9938151041667  14.2493489583333 26.3681640625  C 12.8993778935185 25.7425130208333  11.7360387731482 24.9015842013889  10.7593315972222 23.8453776041667  C 9.7826244212963 22.7891710069444  9.00499131944444 21.5311414930556  8.42643229166667 20.0712890625  C 7.84787326388889 18.6114366319444  7.55859375 17.0809461805556  7.55859375 15.4798177083333  C 7.55859375 13.3404947916667  8.04694733796297 11.3626302083333  9.02365451388889 9.54622395833333  C 10.0003616898148 7.72981770833333  11.3285590277778 6.29351128472222  13.0082465277778 5.2373046875  C 14.6879340277778 4.18109809027777  16.5169270833333 3.65299479166667  18.4952256944444 3.65299479166667  C 20.4735243055556 3.65299479166667  22.3025173611111 4.18109809027777  23.9822048611111 5.2373046875  C 25.6618923611111 6.29351128472222  26.9900896990741 7.72981770833333  27.966796875 9.54622395833333  Z M 35.5440538194444 20.5859375  C 36.2345920138889 18.9982638888889  36.5798611111111 17.3433159722222  36.5798611111111 15.62109375  C 36.5798611111111 13.7508680555556  36.2345920138889 11.9916449652778  35.5440538194444 10.3434244791667  C 34.853515625 8.69520399305555  33.9359085648148 7.31271701388889  32.7912326388889 6.19596354166667  C 31.646556712963 5.07921006944444  30.318359375 4.19791666666667  28.806640625 3.55208333333333  C 27.294921875 2.90625  25.7241030092593 2.58333333333333  24.0941840277778 2.58333333333333  L 18.4765625 2.58333333333333  C 16.2867476851852 2.58333333333333  14.2742332175926 3.12825520833333  12.4390190972222 4.21809895833333  C 10.6038049768519 5.30794270833333  9.14185474537037 6.85525173611111  8.05316840277778 8.86002604166667  C 6.96448206018519 10.8648003472222  6.42013888888889 13.1184895833333  6.42013888888889 15.62109375  C 6.42013888888889 17.921875  6.96137152777778 20.0578342013889  8.04383680555556 22.0289713541667  C 9.12630208333333 24.0001085069444  10.5944733796296 25.5575086805556  12.4483506944444 26.701171875  C 14.3022280092593 27.8448350694444  16.3116319444444 28.4166666666667  18.4765625 28.4166666666667  L 24.0941840277778 28.4166666666667  C 25.69921875 28.4166666666667  27.2638165509259 28.0769314236111  28.7879774305556 27.3974609375  C 30.3121383101852 26.7179904513889  31.646556712963 25.8097873263889  32.7912326388889 24.6728515625  C 33.9359085648148 23.5359157986111  34.853515625 22.1736111111111  35.5440538194444 20.5859375  Z M 42.2907986111111 0.766927083333334  C 42.763599537037 1.27821180555555  43 1.88368055555555  43 2.58333333333333  L 43 28.4166666666667  C 43 29.1163194444444  42.763599537037 29.7217881944444  42.2907986111111 30.2330729166667  C 41.8179976851852 30.7443576388889  41.2581018518519 31  40.6111111111111 31  L 2.38888888888889 31  C 1.74189814814815 31  1.18200231481481 30.7443576388889  0.709201388888889 30.2330729166667  C 0.236400462962963 29.7217881944444  0 29.1163194444444  0 28.4166666666667  L 0 2.58333333333333  C 0 1.88368055555555  0.236400462962963 1.27821180555555  0.709201388888889 0.766927083333334  C 1.18200231481481 0.255642361111108  1.74189814814815 0  2.38888888888889 0  L 40.6111111111111 0  C 41.2581018518519 0  41.8179976851852 0.255642361111108  42.2907986111111 0.766927083333334  Z " fill-rule="nonzero" fill="#f2c346" stroke="none" transform="matrix(1 0 0 1 1149 453 )" />
  </g>
</svg>