<?xml version="1.0" encoding="utf-8"?>
<svg version="1.1" xmlns:xlink="http://www.w3.org/1999/xlink" width="36px" height="31px" xmlns="http://www.w3.org/2000/svg">
  <g transform="matrix(1 0 0 1 -1239 -378 )">
    <path d="M 34.7884615384615 11.11468178954  C 35.5961538461538 11.231884057971  36 11.5314009661836  36 12.0132325141777  C 36 12.2997269481201  35.8125 12.6122663306028  35.4375 12.9508506616257  L 27.5841346153846 19.8657844990548  L 29.4447115384615 29.6326402016383  C 29.4591346153846 29.7237975215291  29.4663461538462 29.8540222642302  29.4663461538462 30.0233144297416  C 29.4663461538462 30.296786389414  29.390625 30.5279353077085  29.2391826923077 30.7167611846251  C 29.0877403846154 30.9055870615417  28.8677884615385 31  28.5793269230769 31  C 28.3052884615385 31  28.0168269230769 30.9218651543793  27.7139423076923 30.765595463138  L 18 26.1556395715186  L 8.28605769230769 30.765595463138  C 7.96875 30.9218651543793  7.68028846153846 31  7.42067307692308 31  C 7.11778846153846 31  6.890625 30.9055870615417  6.73918269230769 30.7167611846251  C 6.58774038461539 30.5279353077085  6.51201923076923 30.296786389414  6.51201923076923 30.0233144297416  C 6.51201923076923 29.945179584121  6.52644230769231 29.8149548414199  6.55528846153846 29.6326402016383  L 8.41586538461539 19.8657844990548  L 0.540865384615385 12.9508506616257  C 0.180288461538462 12.5992438563327  0 12.28670447385  0 12.0132325141777  C 0 11.5314009661836  0.403846153846154 11.231884057971  1.21153846153846 11.11468178954  L 12.0721153846154 9.68872085696282  L 16.9399038461538 0.800882167611845  C 17.2139423076923 0.26696072253728  17.5673076923077 0  18 0  C 18.4326923076923 0  18.7860576923077 0.26696072253728  19.0600961538462 0.800882167611845  L 23.9278846153846 9.68872085696282  L 34.7884615384615 11.11468178954  Z " fill-rule="nonzero" fill="#f2c346" stroke="none" transform="matrix(1 0 0 1 1239 378 )" />
  </g>
</svg>