<?xml version="1.0" encoding="utf-8"?>
<svg version="1.1" xmlns:xlink="http://www.w3.org/1999/xlink" width="13px" height="22px" xmlns="http://www.w3.org/2000/svg">
  <g transform="matrix(1 0 0 1 -7 -5 )">
    <path d="M 8.7978515625 9.92578125  C 9.4326171875 9.20963541666667  9.75 8.34548611111111  9.75 7.33333333333333  C 9.75 6.32118055555555  9.4326171875 5.45703125  8.7978515625 4.74088541666667  C 8.1630859375 4.02473958333333  7.39713541666667 3.66666666666667  6.5 3.66666666666667  C 5.60286458333333 3.66666666666667  4.8369140625 4.02473958333333  4.2021484375 4.74088541666667  C 3.5673828125 5.45703125  3.25 6.32118055555555  3.25 7.33333333333333  C 3.25 8.34548611111111  3.5673828125 9.20963541666667  4.2021484375 9.92578125  C 4.8369140625 10.6419270833333  5.60286458333333 11  6.5 11  C 7.39713541666667 11  8.1630859375 10.6419270833333  8.7978515625 9.92578125  Z M 11.095703125 2.1484375  C 12.365234375 3.58072916666667  13 5.30902777777778  13 7.33333333333333  C 13 8.37413194444444  12.8603515625 9.22873263888889  12.5810546875 9.89713541666667  L 7.9599609375 20.9830729166667  C 7.82454427083333 21.2981770833333  7.62353515625 21.5464409722222  7.35693359375 21.7278645833333  C 7.09033203125 21.9092881944444  6.8046875 22  6.5 22  C 6.1953125 22  5.90966796875 21.9092881944444  5.64306640625 21.7278645833333  C 5.37646484375 21.5464409722222  5.1796875 21.2981770833333  5.052734375 20.9830729166667  L 0.4189453125 9.89713541666667  C 0.1396484375 9.22873263888889  0 8.37413194444444  0 7.33333333333333  C 0 5.30902777777778  0.634765625 3.58072916666667  1.904296875 2.1484375  C 3.173828125 0.716145833333334  4.70572916666667 0  6.5 0  C 8.29427083333333 0  9.826171875 0.716145833333334  11.095703125 2.1484375  Z " fill-rule="nonzero" fill="#7f7f7f" stroke="none" transform="matrix(1 0 0 1 7 5 )" />
  </g>
</svg>