<?xml version="1.0" encoding="utf-8"?>
<svg version="1.1" xmlns:xlink="http://www.w3.org/1999/xlink" width="37px" height="30px" xmlns="http://www.w3.org/2000/svg">
  <g transform="matrix(1 0 0 1 -1058 -75 )">
    <path d="M 22.69140625 18.3984375  C 24.6407251602564 16.8179086538462  25.6153846153846 14.9158653846154  25.6153846153846 12.6923076923077  C 25.6153846153846 10.46875  24.6407251602564 8.56670673076923  22.69140625 6.98617788461538  C 20.7420873397436 5.40564903846154  18.396233974359 4.61538461538462  15.6538461538462 4.61538461538462  C 12.9114583333333 4.61538461538462  10.5656049679487 5.40564903846154  8.61628605769231 6.98617788461538  C 6.6669671474359 8.56670673076923  5.69230769230769 10.46875  5.69230769230769 12.6923076923077  C 5.69230769230769 14.9158653846154  6.6669671474359 16.8179086538462  8.61628605769231 18.3984375  C 10.5656049679487 19.9789663461538  12.9114583333333 20.7692307692308  15.6538461538462 20.7692307692308  C 18.396233974359 20.7692307692308  20.7420873397436 19.9789663461538  22.69140625 18.3984375  Z M 36.1772836538462 26.0697115384615  C 36.7257612179487 26.5144230769231  37 27.0552884615385  37 27.6923076923077  C 37 28.3173076923077  36.7183493589744 28.8581730769231  36.1550480769231 29.3149038461538  C 35.5917467948718 29.7716346153846  34.9246794871795 30  34.1538461538462 30  C 33.3533653846154 30  32.6862980769231 29.7716346153846  32.1526442307692 29.3149038461538  L 24.5258413461538 23.1490384615385  C 21.8723958333333 24.6394230769231  18.9150641025641 25.3846153846154  15.6538461538462 25.3846153846154  C 13.5340544871795 25.3846153846154  11.5069110576923 25.0510817307692  9.57241586538462 24.3840144230769  C 7.63792067307692 23.7169471153846  5.97025240384615 22.8155048076923  4.56941105769231 21.6796875  C 3.16856971153846 20.5438701923077  2.05679086538462 19.1917067307692  1.23407451923077 17.6231971153846  C 0.411358173076923 16.0546875  0 14.4110576923077  0 12.6923076923077  C 0 10.9735576923077  0.411358173076923 9.32992788461539  1.23407451923077 7.76141826923077  C 2.05679086538462 6.19290865384615  3.16856971153846 4.84074519230769  4.56941105769231 3.70492788461538  C 5.97025240384615 2.56911057692308  7.63792067307692 1.66766826923077  9.57241586538462 1.00060096153846  C 11.5069110576923 0.333533653846153  13.5340544871795 0  15.6538461538462 0  C 17.7736378205128 0  19.80078125 0.333533653846153  21.7352764423077 1.00060096153846  C 23.6697716346154 1.66766826923077  25.3374399038462 2.56911057692308  26.73828125 3.70492788461538  C 28.1391225961538 4.84074519230769  29.2509014423077 6.19290865384615  30.0736177884615 7.76141826923077  C 30.8963341346154 9.32992788461539  31.3076923076923 10.9735576923077  31.3076923076923 12.6923076923077  C 31.3076923076923 15.3365384615385  30.3886217948718 17.734375  28.5504807692308 19.8858173076923  L 36.1772836538462 26.0697115384615  Z " fill-rule="nonzero" fill="#000000" stroke="none" transform="matrix(1 0 0 1 1058 75 )" />
  </g>
</svg>