<?xml version="1.0" encoding="utf-8"?>
<svg version="1.1" xmlns:xlink="http://www.w3.org/1999/xlink" width="25px" height="33px" xmlns="http://www.w3.org/2000/svg">
  <g transform="matrix(1 0 0 1 -470 -191 )">
    <path d="M 1.92307692307692 25.3392857142857  L 1.92307692307692 30.6428571428571  L 6.25 30.6428571428571  L 6.25 25.3392857142857  L 1.92307692307692 25.3392857142857  Z M 7.21153846153846 25.3392857142857  L 7.21153846153846 30.6428571428571  L 12.0192307692308 30.6428571428571  L 12.0192307692308 25.3392857142857  L 7.21153846153846 25.3392857142857  Z M 1.92307692307692 18.2678571428571  L 1.92307692307692 24.1607142857143  L 6.25 24.1607142857143  L 6.25 18.2678571428571  L 1.92307692307692 18.2678571428571  Z M 7.21153846153846 18.2678571428571  L 7.21153846153846 24.1607142857143  L 12.0192307692308 24.1607142857143  L 12.0192307692308 18.2678571428571  L 7.21153846153846 18.2678571428571  Z M 1.92307692307692 11.7857142857143  L 1.92307692307692 17.0892857142857  L 6.25 17.0892857142857  L 6.25 11.7857142857143  L 1.92307692307692 11.7857142857143  Z M 12.9807692307692 25.3392857142857  L 12.9807692307692 30.6428571428571  L 17.7884615384615 30.6428571428571  L 17.7884615384615 25.3392857142857  L 12.9807692307692 25.3392857142857  Z M 7.21153846153846 11.7857142857143  L 7.21153846153846 17.0892857142857  L 12.0192307692308 17.0892857142857  L 12.0192307692308 11.7857142857143  L 7.21153846153846 11.7857142857143  Z M 18.75 25.3392857142857  L 18.75 30.6428571428571  L 23.0769230769231 30.6428571428571  L 23.0769230769231 25.3392857142857  L 18.75 25.3392857142857  Z M 12.9807692307692 18.2678571428571  L 12.9807692307692 24.1607142857143  L 17.7884615384615 24.1607142857143  L 17.7884615384615 18.2678571428571  L 12.9807692307692 18.2678571428571  Z M 7.54957932692308 8.66434151785714  C 7.64473157051282 8.54771205357143  7.69230769230769 8.40959821428571  7.69230769230769 8.25  L 7.69230769230769 2.94642857142857  C 7.69230769230769 2.78683035714286  7.64473157051282 2.64871651785714  7.54957932692308 2.53208705357143  C 7.45442708333333 2.41545758928571  7.3417467948718 2.35714285714286  7.21153846153846 2.35714285714286  L 6.25 2.35714285714286  C 6.11979166666667 2.35714285714286  6.00711137820513 2.41545758928571  5.91195913461539 2.53208705357143  C 5.81680689102564 2.64871651785714  5.76923076923077 2.78683035714286  5.76923076923077 2.94642857142857  L 5.76923076923077 8.25  C 5.76923076923077 8.40959821428571  5.81680689102564 8.54771205357143  5.91195913461539 8.66434151785714  C 6.00711137820513 8.78097098214286  6.11979166666667 8.83928571428572  6.25 8.83928571428572  L 7.21153846153846 8.83928571428572  C 7.3417467948718 8.83928571428572  7.45442708333333 8.78097098214286  7.54957932692308 8.66434151785714  Z M 18.75 18.2678571428571  L 18.75 24.1607142857143  L 23.0769230769231 24.1607142857143  L 23.0769230769231 18.2678571428571  L 18.75 18.2678571428571  Z M 12.9807692307692 11.7857142857143  L 12.9807692307692 17.0892857142857  L 17.7884615384615 17.0892857142857  L 17.7884615384615 11.7857142857143  L 12.9807692307692 11.7857142857143  Z M 18.75 11.7857142857143  L 18.75 17.0892857142857  L 23.0769230769231 17.0892857142857  L 23.0769230769231 11.7857142857143  L 18.75 11.7857142857143  Z M 19.0880408653846 8.66434151785714  C 19.1831931089744 8.54771205357143  19.2307692307692 8.40959821428571  19.2307692307692 8.25  L 19.2307692307692 2.94642857142857  C 19.2307692307692 2.78683035714286  19.1831931089744 2.64871651785714  19.0880408653846 2.53208705357143  C 18.9928886217949 2.41545758928571  18.8802083333333 2.35714285714286  18.75 2.35714285714286  L 17.7884615384615 2.35714285714286  C 17.6582532051282 2.35714285714286  17.5455729166667 2.41545758928571  17.4504206730769 2.53208705357143  C 17.3552684294872 2.64871651785714  17.3076923076923 2.78683035714286  17.3076923076923 2.94642857142857  L 17.3076923076923 8.25  C 17.3076923076923 8.40959821428571  17.3552684294872 8.54771205357143  17.4504206730769 8.66434151785714  C 17.5455729166667 8.78097098214286  17.6582532051282 8.83928571428572  17.7884615384615 8.83928571428572  L 18.75 8.83928571428572  C 18.8802083333333 8.83928571428572  18.9928886217949 8.78097098214286  19.0880408653846 8.66434151785714  Z M 24.4290865384615 5.4140625  C 24.8096955128205 5.88058035714286  25 6.43303571428571  25 7.07142857142857  L 25 30.6428571428571  C 25 31.28125  24.8096955128205 31.8337053571429  24.4290865384615 32.3002232142857  C 24.0484775641026 32.7667410714286  23.5977564102564 33  23.0769230769231 33  L 1.92307692307692 33  C 1.40224358974359 33  0.951522435897436 32.7667410714286  0.570913461538461 32.3002232142857  C 0.190304487179487 31.8337053571429  0 31.28125  0 30.6428571428571  L 0 7.07142857142857  C 0 6.43303571428571  0.190304487179487 5.88058035714286  0.570913461538461 5.4140625  C 0.951522435897436 4.94754464285714  1.40224358974359 4.71428571428572  1.92307692307692 4.71428571428572  L 3.84615384615385 4.71428571428572  L 3.84615384615385 2.94642857142857  C 3.84615384615385 2.13616071428572  4.08153044871795 1.44252232142857  4.55228365384615 0.865513392857144  C 5.02303685897436 0.288504464285715  5.58894230769231 0  6.25 0  L 7.21153846153846 0  C 7.87259615384615 0  8.4385016025641 0.288504464285715  8.90925480769231 0.865513392857144  C 9.38000801282051 1.44252232142857  9.61538461538462 2.13616071428572  9.61538461538462 2.94642857142857  L 9.61538461538462 4.71428571428572  L 15.3846153846154 4.71428571428572  L 15.3846153846154 2.94642857142857  C 15.3846153846154 2.13616071428572  15.6199919871795 1.44252232142857  16.0907451923077 0.865513392857144  C 16.5614983974359 0.288504464285715  17.1274038461538 0  17.7884615384615 0  L 18.75 0  C 19.4110576923077 0  19.9769631410256 0.288504464285715  20.4477163461538 0.865513392857144  C 20.9184695512821 1.44252232142857  21.1538461538462 2.13616071428572  21.1538461538462 2.94642857142857  L 21.1538461538462 4.71428571428572  L 23.0769230769231 4.71428571428572  C 23.5977564102564 4.71428571428572  24.0484775641026 4.94754464285714  24.4290865384615 5.4140625  Z " fill-rule="nonzero" fill="#facd91" stroke="none" transform="matrix(1 0 0 1 470 191 )" />
  </g>
</svg>