<?xml version="1.0" encoding="utf-8"?>
<svg version="1.1" xmlns:xlink="http://www.w3.org/1999/xlink" width="13px" height="10px" xmlns="http://www.w3.org/2000/svg">
  <g transform="matrix(1 0 0 1 -206 -280 )">
    <path d="M 12.8697394789579 1.03092783505155  C 12.9565798263193 1.14547537227949  13 1.27720504009164  13 1.42611683848797  C 13 1.57502863688431  12.9565798263193 1.70675830469645  12.8697394789579 1.8213058419244  L 6.79959919839679 9.82817869415807  C 6.7127588510354 9.94272623138602  6.61289245156981 10  6.5 10  C 6.38710754843019 10  6.2872411489646 9.94272623138602  6.20040080160321 9.82817869415807  L 0.130260521042084 1.8213058419244  C 0.0434201736806948 1.70675830469645  0 1.57502863688431  0 1.42611683848797  C 0 1.27720504009164  0.0434201736806948 1.14547537227949  0.130260521042084 1.03092783505155  L 0.781563126252505 0.171821305841925  C 0.868403473613895 0.0572737686139735  0.968269873079492 0  1.0811623246493 0  C 1.19405477621911 0  1.2939211756847 0.0572737686139735  1.38076152304609 0.171821305841925  L 6.5 6.92439862542955  L 11.6192384769539 0.171821305841925  C 11.7060788243153 0.0572737686139735  11.8059452237809 0  11.9188376753507 0  C 12.0317301269205 0  12.1315965263861 0.0572737686139735  12.2184368737475 0.171821305841925  L 12.8697394789579 1.03092783505155  Z " fill-rule="nonzero" fill="#000000" stroke="none" transform="matrix(1 0 0 1 206 280 )" />
  </g>
</svg>