<?xml version="1.0" encoding="utf-8"?>
<svg version="1.1" xmlns:xlink="http://www.w3.org/1999/xlink" width="14px" height="23px" xmlns="http://www.w3.org/2000/svg">
  <g transform="matrix(1 0 0 1 -995 -170 )">
    <path d="M 8.02994791666667 21.715234375  C 8.31553819444444 21.4337239583333  8.45833333333333 21.0953125  8.45833333333333 20.7  C 8.45833333333333 20.3046875  8.31553819444444 19.9662760416667  8.02994791666667 19.684765625  C 7.74435763888889 19.4032552083333  7.40104166666667 19.2625  7 19.2625  C 6.59895833333333 19.2625  6.25564236111111 19.4032552083333  5.97005208333333 19.684765625  C 5.68446180555556 19.9662760416667  5.54166666666667 20.3046875  5.54166666666667 20.7  C 5.54166666666667 21.0953125  5.68446180555556 21.4337239583333  5.97005208333333 21.715234375  C 6.25564236111111 21.9967447916667  6.59895833333333 22.1375  7 22.1375  C 7.40104166666667 22.1375  7.74435763888889 21.9967447916667  8.02994791666667 21.715234375  Z M 12.0768229166667 18.229296875  C 12.1922743055556 18.1154947916667  12.25 17.9807291666667  12 17.825  L 12 5.175  C 12.25 5.01927083333333  12.1922743055556 4.88450520833333  12.0768229166667 4.770703125  C 11.9613715277778 4.65690104166667  11.8246527777778 4.6  11.6666666666667 4.6  L 2.33333333333333 4.6  C 2.17534722222222 4.6  2.03862847222222 4.65690104166667  1.92317708333333 4.770703125  C 1.80772569444444 4.88450520833333  1.75 5.01927083333333  2 5.175  L 2 17.825  C 1.75 17.9807291666667  1.80772569444444 18.1154947916667  1.92317708333333 18.229296875  C 2.03862847222222 18.3430989583333  2.17534722222222 18.4  2.33333333333333 18.4  L 11.6666666666667 18.4  C 11.8246527777778 18.4  11.9613715277778 18.3430989583333  12.0768229166667 18.229296875  Z M 8.45833333333333 2.875  C 8.65277777777778 2.875  8.75 2.77916666666666  8.75 2.5875  C 8.75 2.39583333333333  8.65277777777778 2.3  8.45833333333333 2.3  L 5.54166666666667 2.3  C 5.34722222222222 2.3  5.25 2.39583333333333  5.25 2.5875  C 5.25 2.77916666666666  5.34722222222222 2.875  5.54166666666667 2.875  L 8.45833333333333 2.875  Z M 13.3072916666667 0.682812499999999  C 13.7690972222222 1.13802083333333  14 1.67708333333333  14 2.3  L 14 20.7  C 14 21.3229166666667  13.7690972222222 21.8619791666667  13.3072916666667 22.3171875  C 12.8454861111111 22.7723958333333  12.2986111111111 23  11.6666666666667 23  L 2.33333333333333 23  C 1.70138888888889 23  1.15451388888889 22.7723958333333  0.692708333333333 22.3171875  C 0.230902777777778 21.8619791666667  0 21.3229166666667  0 20.7  L 0 2.3  C 0 1.67708333333333  0.230902777777778 1.13802083333333  0.692708333333333 0.682812499999999  C 1.15451388888889 0.227604166666664  1.70138888888889 0  2.33333333333333 0  L 11.6666666666667 0  C 12.2986111111111 0  12.8454861111111 0.227604166666664  13.3072916666667 0.682812499999999  Z " fill-rule="nonzero" fill="#555555" stroke="none" transform="matrix(1 0 0 1 995 170 )" />
  </g>
</svg>