<?xml version="1.0" encoding="utf-8"?>
<svg version="1.1" xmlns:xlink="http://www.w3.org/1999/xlink" width="15px" height="15px" xmlns="http://www.w3.org/2000/svg">
  <g transform="matrix(1 0 0 1 -820 -506 )">
    <path d="M 0 10.6473214285714  C 0 9.11272321428571  0.71753986332574 7.8125  2.15261958997722 6.74665178571429  C 2.10706150341686 6.640625  2.08428246013667 6.49553571428571  2.08428246013667 6.31138392857143  C 2.08428246013667 6.19977678571428  2.11560364464693 6.06305803571428  2.17824601366743 5.90122767857143  C 2.24088838268793 5.73939732142857  2.30922551252847 5.61383928571428  2.38325740318907 5.52455357142857  C 2.37756264236902 5.40178571428571  2.39891799544419 5.25390625  2.44732346241458 5.08091517857143  C 2.49572892938497 4.90792410714286  2.55979498861048 4.78794642857143  2.63952164009112 4.72098214285714  C 2.63952164009112 3.9453125  2.90290432801822 3.14034598214286  3.42966970387244 2.30608258928571  C 3.95643507972665 1.47181919642857  4.57574031890661 0.887276785714285  5.2875854214123 0.552455357142856  C 6.07915717539863 0.184151785714285  7.00170842824601 0  8.05523917995444 0  C 8.8126423690205 0  9.57004555808656 0.153459821428573  10.3274487471526 0.460379464285715  C 10.6064920273349 0.577566964285715  10.8627562642369 0.711495535714285  11.0962414578588 0.862165178571429  C 11.3297266514806 1.01283482142857  11.5318906605923 1.16908482142857  11.7027334851936 1.33091517857143  C 11.873576309795 1.49274553571428  12.0301822323462 1.68247767857143  12.1725512528474 1.90011160714286  C 12.3149202733485 2.11774553571429  12.4345102505695 2.32421875  12.5313211845103 2.51953125  C 12.628132118451 2.71484375  12.7206719817768 2.95061383928571  12.8089407744875 3.22684151785714  C 12.8972095671982 3.50306919642857  12.9698177676538 3.75279017857143  13.0267653758542 3.97600446428571  C 13.0837129840547 4.19921875  13.1463553530752 4.47265625  13.2146924829157 4.79631696428571  L 13.2232346241458 4.83816964285714  C 13.5364464692483 5.30133928571428  13.6930523917995 5.71986607142857  13.6930523917995 6.09375  C 13.6930523917995 6.171875  13.6674259681093 6.28348214285714  13.6161731207289 6.42857142857143  C 13.5649202733485 6.57366071428571  13.5392938496583 6.6796875  13.5392938496583 6.74665178571429  C 13.5392938496583 6.75223214285714  13.5435649202733 6.76199776785714  13.5521070615034 6.77594866071429  C 13.5606492027335 6.78989955357143  13.5706150341686 6.80385044642857  13.5820045558087 6.81780133928571  C 13.5933940774487 6.83175223214286  13.5990888382688 6.84151785714286  13.5990888382688 6.84709821428571  C 14.0375854214123 7.48325892857143  14.38069476082 8.08175223214286  14.628416856492 8.642578125  C 14.876138952164 9.20340401785714  15 9.78515625  15 10.3878348214286  C 15 10.6277901785714  14.9444760820046 10.9068080357143  14.8334282460137 11.2248883928571  C 14.7223804100228 11.54296875  14.5643507972665 11.7020089285714  14.3593394077449 11.7020089285714  C 14.3080865603645 11.7020089285714  14.252562642369 11.6810825892857  14.1927676537585 11.6392299107143  C 14.1329726651481 11.5973772321429  14.0788724373576 11.5485491071429  14.0304669703872 11.4927455357143  C 13.9820615034169 11.4369419642857  13.9279612756264 11.3643973214286  13.8681662870159 11.2751116071429  C 13.8083712984055 11.1858258928571  13.7628132118451 11.1118861607143  13.7314920273349 11.0532924107143  C 13.7001708428246 10.9946986607143  13.6617312072893 10.9221540178571  13.6161731207289 10.8356584821429  C 13.5706150341686 10.7491629464286  13.5449886104784 10.7003348214286  13.5392938496583 10.6891741071429  C 13.5335990888383 10.68359375  13.5250569476082 10.6808035714286  13.5136674259681 10.6808035714286  L 13.4709567198178 10.7142857142857  C 13.1349658314351 11.5736607142857  12.7591116173121 12.1958705357143  12.3433940774487 12.5809151785714  C 12.4572892938497 12.6925223214286  12.6324031890661 12.7999441964286  12.8687357630979 12.9031808035714  C 13.1050683371298 13.0064174107143  13.3015375854214 13.1222098214286  13.4581435079727 13.2505580357143  C 13.6147494305239 13.37890625  13.7158314350797 13.5602678571429  13.7613895216401 13.7946428571429  C 13.75 13.8169642857143  13.7386104783599 13.8616071428571  13.7272209567198 13.9285714285714  C 13.7158314350797 13.9955357142857  13.6958997722096 14.0457589285714  13.6674259681093 14.0792410714286  C 13.3029612756264 14.6205357142857  12.4430523917995 14.8911830357143  11.0876993166287 14.8911830357143  C 10.7858769931663 14.8911830357143  10.4712414578588 14.8660714285714  10.1437927107062 14.8158482142857  C 9.81634396355353 14.765625  9.5373006833713 14.7098214285714  9.30666287015945 14.6484375  C 9.07602505694761 14.5870535714286  8.77847380410023 14.5033482142857  8.41400911161731 14.3973214285714  C 8.32858769931663 14.3694196428571  8.2630979498861 14.3498883928571  8.21753986332574 14.3387276785714  C 8.1378132118451 14.31640625  8.00683371298406 14.3038504464286  7.8246013667426 14.3010602678571  C 7.64236902050114 14.2982700892857  7.52847380410023 14.2940848214286  7.48291571753986 14.2885044642857  C 7.249430523918 14.5396205357143  6.88638952164009 14.7209821428571  6.39379271070615 14.8325892857143  C 5.90119589977221 14.9441964285714  5.42141230068337 15  4.95444191343964 15  C 4.75512528473804 15  4.55865603644647 14.9958147321429  4.36503416856492 14.9874441964286  C 4.17141230068337 14.9790736607143  3.90660592255125 14.9539620535714  3.57061503416857 14.912109375  C 3.23462414578588 14.8702566964286  2.94703872437358 14.8130580357143  2.70785876993166 14.7405133928571  C 2.46867881548975 14.66796875  2.25654897494305 14.5563616071429  2.07146924829157 14.4056919642857  C 1.88638952164009 14.2550223214286  1.79384965831435 14.0764508928571  1.79384965831435 13.8699776785714  C 1.79384965831435 13.6467633928571  1.82232346241458 13.4807477678571  1.87927107061503 13.3719308035714  C 1.93621867881549 13.2631138392857  2.05296127562642 13.1277901785714  2.22949886104784 12.9659598214286  C 2.29214123006834 12.9547991071429  2.40746013667426 12.9185267857143  2.5754555808656 12.8571428571429  C 2.74345102505695 12.7957589285714  2.88439635535308 12.7622767857143  2.99829157175399 12.7566964285714  C 3.02107061503417 12.7566964285714  3.06093394077449 12.7511160714286  3.11788154897494 12.7399553571429  C 3.12927107061503 12.7287946428571  3.13496583143508 12.7176339285714  3.13496583143508 12.7064732142857  L 3.11788154897494 12.6813616071429  C 2.84453302961276 12.6199776785714  2.5370159453303 12.3256138392857  2.19533029612756 11.7982700892857  C 1.85364464692483 11.2709263392857  1.64578587699317 10.8342633928571  1.57175398633257 10.48828125  L 1.52904328018223 10.4631696428571  C 1.50626423690205 10.4631696428571  1.47209567198178 10.5189732142857  1.42653758542141 10.6305803571429  C 1.32403189066059 10.859375  1.16884965831435 11.0672433035714  0.960990888382688 11.2541852678571  C 0.753132118451025 11.4411272321429  0.53246013667426 11.5457589285714  0.298974943052392 11.5680803571429  L 0.290432801822324 11.5680803571429  C 0.267653758542141 11.5680803571429  0.250569476082004 11.5555245535714  0.239179954441913 11.5304129464286  C 0.227790432801822 11.5053013392857  0.213553530751708 11.4899553571429  0.196469248291572 11.484375  C 0.0654897494305239 11.1830357142857  0 10.9040178571429  0 10.6473214285714  Z " fill-rule="nonzero" fill="#81d3f8" stroke="none" transform="matrix(1 0 0 1 820 506 )" />
  </g>
</svg>