<?xml version="1.0" encoding="utf-8"?>
<svg version="1.1" xmlns:xlink="http://www.w3.org/1999/xlink" width="15px" height="15px" xmlns="http://www.w3.org/2000/svg">
  <g transform="matrix(1 0 0 1 -866 -506 )">
    <path d="M 5.12409369771333 11.9989669421488  C 5.34997211377579 11.9059917355372  5.52426101505856 11.7424242424242  5.64696040156163 11.5082644628099  C 5.76408254322365 11.2741046831956  5.79475738984942 11.0365013774105  5.73898494143893 10.7954545454545  C 5.68321249302844 10.5544077134986  5.55772448410485 10.3822314049587  5.36252091466815 10.2789256198347  C 5.17289459007251 10.1825068870523  4.96932515337423 10.1790633608815  4.75181260457334 10.2685950413223  C 4.53430005577245 10.3581267217631  4.36698271054099 10.5165289256198  4.24986056887897 10.7438016528926  C 4.12716118237591 10.9779614325069  4.09090909090909 11.2138429752066  4.14110429447853 11.4514462809917  C 4.19129949804797 11.6890495867769  4.31121026213051 11.8629476584022  4.50083658672616 11.9731404958678  C 4.69046291132181 12.0833333333333  4.89821528165086 12.0919421487603  5.12409369771333 11.9989669421488  Z M 6.24930284439487 10.4493801652893  C 6.3329615170106 10.4115013774105  6.39431121026213 10.3477961432507  6.43335192414947 10.2582644628099  C 6.47796988287786 10.1687327823691  6.48773006134969 10.077479338843  6.46263245956497 9.98450413223141  C 6.43753485778026 9.89152892561984  6.38873396542108 9.82782369146005  6.31622978248745 9.79338842975207  C 6.23814835471277 9.75895316804407  6.15867261572783 9.76067493112948  6.07780256553263 9.79855371900826  C 5.99693251533742 9.83643250688705  5.93697713329615 9.90013774104683  5.89793641940881 9.9896694214876  C 5.80312325711099 10.2031680440771  5.8393753485778 10.3581267217631  6.00669269380926 10.4545454545455  C 6.08477412158394 10.4889807162534  6.16564417177914 10.487258953168  6.24930284439487 10.4493801652893  Z M 7.8680981595092 9.39566115702479  C 8.13301728945901 10.0189393939394  8.13998884551032 10.6749311294766  7.88901282766313 11.3636363636364  C 7.63803680981595 12.0661157024793  7.19743446737312 12.5826446280992  6.56720580033464 12.9132231404959  C 5.93697713329615 13.2438016528926  5.31232571109872 13.2851239669421  4.69325153374233 13.0371900826446  C 4.09648633575014 12.8030303030303  3.68516452872281 12.3674242424242  3.45928611266035 11.7303719008264  C 3.23340769659788 11.0933195592287  3.25153374233129 10.4476584022039  3.51366424986057 9.79338842975207  C 3.77579475738985 9.15289256198347  4.19827105409928 8.67424242424242  4.78109313998885 8.35743801652893  C 5.36391522587842 8.04063360881542  5.95092024539877 7.97520661157025  6.54210819854992 8.16115702479339  C 7.1611823759063 8.36088154269972  7.6031790295594 8.77238292011019  7.8680981595092 9.39566115702479  Z M 9.39068600111545 12.4431818181818  C 10.2077523703291 11.6270661157025  10.5772448410485 10.7162534435262  10.4991634132738 9.71074380165289  C 10.4489682097044 9.0495867768595  10.2007808142777 8.46418732782369  9.75460122699386 7.95454545454545  C 9.30842163970998 7.44490358126722  8.72699386503067 7.06955922865014  8.01031790295594 6.82851239669422  C 7.29364194088121 6.58746556473829  6.5281650864473 6.51515151515152  5.71388733965421 6.61157024793388  C 4.47016174010039 6.76997245179063  3.43976575571668 7.25723140495868  2.62269938650307 8.07334710743802  C 1.80563301728946 8.88946280991735  1.43614054656999 9.80027548209366  1.51422197434467 10.8057851239669  C 1.56441717791411 11.4669421487603  1.81260457334077 12.0523415977961  2.25878416062465 12.5619834710744  C 2.70496374790853 13.0716253443526  3.28639152258784 13.4469696969697  4.00306748466258 13.6880165289256  C 4.71974344673731 13.9290633608815  5.48522030117122 14.0013774104683  6.29949804796431 13.904958677686  C 7.54322364751813 13.7465564738292  8.57361963190184 13.2592975206612  9.39068600111545 12.4431818181818  Z M 12.7914110429448 8.54855371900826  C 12.9810373675404 8.91012396694215  13.0758505298383 9.31129476584022  13.0758505298383 9.75206611570248  C 13.0758505298383 10.2203856749311  12.9726715002789 10.7007575757576  12.7663134411601 11.1931818181818  C 12.5599553820413 11.6856060606061  12.2559955382041 12.1573691460055  11.8544339096486 12.6084710743802  C 11.4528722810931 13.0595730027548  10.9829894032348 13.4641873278237  10.4447852760736 13.8223140495868  C 9.90658114891244 14.1804407713499  9.27635248187396 14.4662534435262  8.55409927495817 14.6797520661157  C 7.83184606804239 14.8932506887052  7.07752370329057 15  6.29113218070273 15  C 5.50474065811489 15  4.73786949247072 14.8846418732782  3.99051868377022 14.6539256198347  C 3.24316787506972 14.4232093663912  2.57250418293363 14.1029614325069  1.97852760736196 13.6931818181818  C 1.3845510317903 13.2834022038567  0.906302286670385 12.7634297520661  0.543781372002231 12.1332644628099  C 0.181260457334077 11.5030991735537  0 10.8161157024793  0 10.0723140495868  C 0 9.28030303030303  0.193809258226436 8.4366391184573  0.581427774679308 7.54132231404959  C 0.969046291132181 6.64600550964187  1.51979921918572 5.75757575757576  2.23368655883993 4.87603305785124  C 3.17624093697713 3.71212121212121  4.12855549358617 2.89944903581267  5.09063022866704 2.43801652892562  C 6.05270496374791 1.97658402203857  6.74010039040714 2.00068870523416  7.15281650864473 2.5103305785124  C 7.51533742331288 2.95110192837465  7.57110987172337 3.67079889807162  7.32013385387619 4.66942148760331  C 7.29782487451199 4.76584022038567  7.29503625209147 4.83471074380165  7.31176798661461 4.87603305785124  C 7.32849972113776 4.91735537190082  7.356385945343 4.94146005509642  7.39542665923034 4.94834710743802  C 7.43446737311768 4.95523415977961  7.47490239821528 4.95351239669422  7.51673173452315 4.94318181818182  C 7.55856107083101 4.93285123966942  7.59620747350809 4.92079889807162  7.62967094255438 4.90702479338843  L 7.67986614612382 4.88636363636364  C 8.45510317902956 4.48002754820937  9.14110429447853 4.27685950413223  9.73786949247072 4.27685950413223  C 10.3346346904629 4.27685950413223  10.7612939208031 4.48691460055096  11.0178471834914 4.90702479338843  C 11.2688232013385 5.34090909090909  11.2688232013385 5.95385674931129  11.0178471834914 6.74586776859504  C 11.0066926938093 6.83539944903581  10.9941438929169 6.90426997245179  10.9802007808143 6.95247933884298  C 10.9662576687117 7.00068870523416  10.978806469604 7.04373278236915  11.0178471834914 7.08161157024793  C 11.0568878973787 7.11949035812672  11.090351366425 7.14531680440771  11.1182375906302 7.15909090909091  C 11.1461238148355 7.1728650137741  11.1935303959844 7.1935261707989  11.260457334077 7.22107438016529  C 11.5783602900167 7.34504132231405  11.8655883993307 7.5068870523416  12.122141662019 7.70661157024793  C 12.3786949247072 7.90633608815427  12.6017847183491 8.18698347107438  12.7914110429448 8.54855371900826  Z M 11.611823759063 2.62913223140496  C 11.9408812046849 2.75654269972452  12.2225320691578 2.98209366391184  12.4567763524819 3.30578512396694  C 12.6910206358059 3.62947658402204  12.8430005577245 4.00309917355372  12.9127161182376 4.42665289256198  C 12.9824316787507 4.85020661157025  12.9643056330173 5.25482093663912  12.8583379810374 5.64049586776859  C 12.813720022309 5.79889807162534  12.7314556609035 5.91597796143251  12.611544896821 5.99173553719008  C 12.4916341327384 6.06749311294766  12.3675404350251 6.08126721763085  12.239263803681 6.03305785123967  C 12.1109871723369 5.97796143250689  12.016174010039 5.87637741046832  11.9548243167875 5.72830578512397  C 11.893474623536 5.58023415977961  11.8823201338539 5.42699724517906  11.9213608477412 5.26859504132231  C 12.0329057445622 4.83471074380165  11.9659788064696 4.45247933884298  11.7205800334635 4.12190082644628  C 11.4751812604573 3.79132231404959  11.1767986614612 3.67079889807162  10.8254322364752 3.7603305785124  C 10.69157836029 3.79476584022039  10.5660903513664 3.76721763085399  10.4489682097044 3.67768595041322  C 10.3318460680424 3.58815426997245  10.2621305075293 3.46074380165289  10.2398215281651 3.29545454545455  C 10.2119353039598 3.1301652892562  10.234244283324 2.97692837465565  10.3067484662577 2.83574380165289  C 10.3792526491913 2.69455922865014  10.4824316787507 2.60674931129476  10.6162855549359 2.57231404958678  C 10.9509202453988 2.482782369146  11.2827663134412 2.5017217630854  11.611823759063 2.62913223140496  Z M 12.2308979364194 0.232438016528925  C 12.9057445621863 0.490702479338843  13.4857780256553 0.953856749311294  13.9709983268265 1.62190082644628  C 14.4562186279978 2.28305785123967  14.7699386503067 3.04924242424242  14.9121583937535 3.92045454545455  C 15.0543781372002 4.79166666666667  15.0167317345231 5.6232782369146  14.7992191857223 6.41528925619835  C 14.7490239821528 6.60123966942149  14.654210819855 6.73898071625344  14.5147796988288 6.82851239669422  C 14.3753485778026 6.91804407713499  14.2303402119353 6.93181818181818  14.079754601227 6.8698347107438  C 13.9291689905187 6.80785123966942  13.8176240936977 6.69077134986226  13.7451199107641 6.51859504132231  C 13.6726157278305 6.34641873278237  13.6586726157278 6.16735537190083  13.7032905744562 5.98140495867769  C 13.8594534300056 5.41666666666667  13.8873396542108 4.82438016528926  13.7869492470719 4.20454545454545  C 13.6865588399331 3.58471074380165  13.4634690462911 3.04063360881543  13.1176798661461 2.57231404958678  C 12.7718906860011 2.09710743801653  12.3591745677635 1.76825068870523  11.8795315114334 1.58574380165289  C 11.3998884551032 1.40323691460055  10.9174567763525 1.37396694214876  10.4322364751813 1.49793388429752  C 10.2760736196319 1.53925619834711  10.1310652537646 1.50654269972452  9.99721137757948 1.39979338842975  C 9.86335750139431 1.29304407713498  9.77969882877858 1.14325068870523  9.74623535973229 0.950413223140495  C 9.712771890686 0.757575757575757  9.73926380368098 0.580234159779612  9.82571109871723 0.418388429752067  C 9.91215839375349 0.256542699724518  10.0334634690463 0.154958677685951  10.1896263245956 0.113636363636364  C 10.8756274400446 -0.0654269972451815  11.5560513106525 -0.025826446280991  12.2308979364194 0.232438016528925  Z " fill-rule="nonzero" fill="#ec808d" stroke="none" transform="matrix(1 0 0 1 866 506 )" />
  </g>
</svg>