<?xml version="1.0" encoding="utf-8"?>
<svg version="1.1" xmlns:xlink="http://www.w3.org/1999/xlink" width="12px" height="12px" viewBox="701 443.5  12 12" xmlns="http://www.w3.org/2000/svg">
  <path d="M 707 443.5  C 710.36 443.5  713 446.14  713 449.5  C 713 452.86  710.36 455.5  707 455.5  C 703.64 455.5  701 452.86  701 449.5  C 701 446.14  703.64 443.5  707 443.5  Z " fill-rule="nonzero" fill="#ffffff" stroke="none" />
  <path d="M 707 444  C 710.08 444  712.5 446.42  712.5 449.5  C 712.5 452.58  710.08 455  707 455  C 703.92 455  701.5 452.58  701.5 449.5  C 701.5 446.42  703.92 444  707 444  Z " stroke-width="1" stroke="#797979" fill="none" />
  <path d="M 707 452.5  C 705.32 452.5  704 451.18  704 449.5  C 704 447.82  705.32 446.5  707 446.5  C 708.68 446.5  710 447.82  710 449.5  C 710 451.18  708.68 452.5  707 452.5  " fill-rule="nonzero" fill="#797979" stroke="none" />
</svg>