<?xml version="1.0" encoding="utf-8"?>
<svg version="1.1" xmlns:xlink="http://www.w3.org/1999/xlink" width="12px" height="12px" viewBox="711 453.5  12 12" xmlns="http://www.w3.org/2000/svg">
  <path d="M 717 453.5  C 720.36 453.5  723 456.14  723 459.5  C 723 462.86  720.36 465.5  717 465.5  C 713.64 465.5  711 462.86  711 459.5  C 711 456.14  713.64 453.5  717 453.5  Z " fill-rule="nonzero" fill="#ffffff" stroke="none" />
  <path d="M 717 454  C 720.08 454  722.5 456.42  722.5 459.5  C 722.5 462.58  720.08 465  717 465  C 713.92 465  711.5 462.58  711.5 459.5  C 711.5 456.42  713.92 454  717 454  Z " stroke-width="1" stroke="#797979" fill="none" />
  <path d="M 717 462.5  C 715.32 462.5  714 461.18  714 459.5  C 714 457.82  715.32 456.5  717 456.5  C 718.68 456.5  720 457.82  720 459.5  C 720 461.18  718.68 462.5  717 462.5  " fill-rule="nonzero" fill="#797979" stroke="none" />
</svg>